<svg xmlns="http://www.w3.org/2000/svg" enable-background="new 0 0 135 135" viewBox="0 0 135 135" id="police-station"><path fill="#e54038" d="M127.4106827,22.550333c0,3.2831631,0,6.5663662,0,9.8495464
			c-5.2681351,3.5458488-10.5362625-3.545845-15.8043976,0c0-3.2831802,0-6.5663834,0-9.8495464
			C116.8744202,19.004509,122.1425476,26.0962009,127.4106827,22.550333z"></path><rect width="1.736" height="40.145" x="110.738" y="20.761" fill="#a7a29c"></rect><rect width="78.12" height="46.148" x="28.439" y="17.12" fill="#a7a29c"></rect><rect width="4.714" height="46.148" x="28.439" y="17.12" fill="#bab6b1"></rect><rect width="1.431" height="46.148" x="33.153" y="17.12" opacity=".08"></rect><rect width="1.431" height="46.148" x="100.416" y="17.12" opacity=".08"></rect><rect width="4.714" height="46.148" x="101.847" y="17.12" fill="#bab6b1"></rect><rect width="78.121" height="3.24" x="28.439" y="17.125" opacity=".08"></rect><rect width="62.443" height="32.681" x="36.278" y="24.933" fill="#807f84"></rect><rect width="29.677" height="59.439" x="52.662" y="11.554" fill="#4f4e4d" transform="rotate(90 67.5 41.273)"></rect><rect width="59.439" height="29.677" x="37.781" y="26.435" fill="#4f4e4d"></rect><rect width="59.439" height="1.502" x="37.779" y="32.672" fill="#807f84"></rect><rect width="85.33" height="9.597" x="24.835" y="5.514" fill="#a7a29c"></rect><rect width="38.433" height="9.597" x="48.283" y="5.514" fill="#bab6b1"></rect><rect width="13.888" height="5.243" x="91.677" y="7.691" fill="#99928c"></rect><rect width="13.888" height="5.243" x="29.435" y="7.691" fill="#99928c"></rect><rect width="85.33" height="2.014" x="24.835" y="15.111" fill="#807f84"></rect><rect width="85.33" height="2.014" x="24.835" y="3.5" fill="#807f84"></rect><rect width="1.502" height="31.022" x="85.606" y="25.762" fill="#807f84"></rect><rect width="1.502" height="31.022" x="73.035" y="25.762" fill="#807f84"></rect><rect width="1.502" height="31.022" x="60.463" y="25.762" fill="#807f84"></rect><rect width="1.502" height="31.022" x="47.892" y="25.762" fill="#807f84"></rect><polygon points="106.56 17.12 106.56 63.268 70.986 63.268 28.439 20.722 28.439 17.12" opacity=".08"></polygon><rect width="94.173" height="63.519" x="20.414" y="60.906" fill="#a7a29c"></rect><rect width="99.621" height="3.915" x="17.69" y="124.425" fill="#bab6b1"></rect><rect width="42.416" height="11.261" x="46.292" y="63.269" fill="#bab6b1"></rect><rect width="15.327" height="6.152" x="94.183" y="65.824" fill="#99928c"></rect><rect width="15.327" height="6.152" x="25.49" y="65.824" fill="#99928c"></rect><rect width="5.851" height="47.531" x="108.735" y="76.894" fill="#bab6b1"></rect><rect width="5.851" height="47.531" x="82.857" y="76.894" fill="#bab6b1"></rect><rect width="5.851" height="47.531" x="46.292" y="76.894" fill="#bab6b1"></rect><rect width="5.851" height="47.531" x="20.414" y="76.894" fill="#bab6b1"></rect><rect width="2.175" height="47.531" x="26.265" y="76.894" opacity=".08" transform="rotate(-180 27.352 100.66)"></rect><rect width="2.175" height="47.531" x="44.117" y="76.894" opacity=".08" transform="rotate(-180 45.205 100.66)"></rect><rect width="2.175" height="47.531" x="52.143" y="76.894" opacity=".08" transform="rotate(-180 53.23 100.66)"></rect><rect width="2.175" height="47.531" x="80.682" y="76.894" opacity=".08" transform="rotate(-180 81.77 100.66)"></rect><rect width="2.175" height="47.531" x="88.708" y="76.894" opacity=".08" transform="rotate(-180 89.795 100.66)"></rect><rect width="2.175" height="47.531" x="106.561" y="76.894" opacity=".08" transform="rotate(-180 107.648 100.66)"></rect><rect width="94.173" height="2.363" x="20.414" y="74.531" fill="#807f84"></rect><rect width="94.173" height="2.363" x="20.414" y="60.906" fill="#807f84"></rect><rect width="21.839" height="28.04" x="56.58" y="96.385" fill="#4f4e4d"></rect><polygon fill="#807f84" points="79.922 94.883 79.922 124.425 78.42 124.425 78.42 96.385 56.58 96.385 56.58 124.425 55.078 124.425 55.078 94.883"></polygon><rect width="15.678" height="24.768" x="28.439" y="87.772" fill="#807f84"></rect><rect width="12.674" height="21.764" x="29.941" y="89.274" fill="#4f4e4d"></rect><rect width="1.408" height="24.768" x="35.574" y="87.772" fill="#807f84"></rect><rect width="30.714" height="2.494" x="52.143" y="92.389" fill="#bab6b1"></rect><rect width="1.162" height="29.254" x="66.919" y="95.171" fill="#807f84"></rect><rect width="15.678" height="24.768" x="90.883" y="87.772" fill="#807f84"></rect><rect width="12.674" height="21.763" x="92.385" y="89.274" fill="#4f4e4d"></rect><rect width="1.408" height="24.768" x="98.017" y="87.772" fill="#807f84"></rect><path fill="#4f4e4d" d="M54.5787354 66.1740417c.472084.4015884.7080078 1.0179825.7080078 1.8494034 0 .831665-.2423325 1.4399796-.7272301 1.8254318-.4849014.3852158-1.2249489.5777054-2.2201424.5777054h-.8957443v1.8783569h-1.5026398v-6.732811h2.3791618C53.3537903 65.5721283 54.1068916 65.7729263 54.5787354 66.1740417zM53.4760246 68.8230667c.1796722-.2024536.2696266-.4977188.2696266-.8862534s-.1172485-.664566-.3515129-.8283386c-.2344971-.163765-.5988235-.2456512-1.0932159-.2456512h-.857296v2.2635727h1.0113335C52.955761 69.1263962 53.2961159 69.0252838 53.4760246 68.8230667zM62.1254082 71.3754959c-.6807098.664566-1.5185432.9968491-2.5139771.9968491-.9951935 0-1.8332634-.332283-2.5139732-.9968491-.6807098-.6645737-1.0208282-1.4912491-1.0208282-2.480278 0-.9887848.3401184-1.8156967 1.0208282-2.4802704.6807098-.664566 1.5187798-.9968567 2.5139732-.9968567.9954338 0 1.8332672.3322906 2.5139771.9968567.6807098.6645737 1.0210648 1.4914856 1.0210648 2.4802704C63.1464729 69.8842468 62.806118 70.7109222 62.1254082 71.3754959zM61.6151123 68.899971c0-.6002502-.1927261-1.1124496-.5779381-1.5363464-.3854523-.4236679-.8589592-.6356125-1.4207573-.6356125-.5620346 0-1.0355415.2119446-1.4207573.6356125-.3852119.4238968-.5779381.9360962-.5779381 1.5363464 0 .6004868.1927261 1.1110153.5779381 1.5315933.3852158.420578.8587227.630867 1.4207573.630867.5617981 0 1.035305-.210289 1.4207573-.630867C61.4223862 70.0109863 61.6151123 69.5004578 61.6151123 68.899971zM64.4177017 72.3049393v-6.732811h1.5026398v5.3939438h2.8702316v1.3388672H64.4177017zM69.8885422 65.5721283h1.5026398v6.732811h-1.5026398V65.5721283zM76.1397705 70.9757996c.7383881 0 1.3419571-.2921753 1.8107147-.8765182l.9633942.9921036c-.7642593.8603821-1.6649857 1.2906952-2.7019577 1.2906952-1.0369644 0-1.8911743-.3275375-2.562149-.9826126-.6709824-.6548462-1.0063553-1.4815216-1.0063553-2.480278 0-.9982758.3417816-1.8315964 1.0258179-2.4994965.6837921-.6676559 1.5202026-1.0016022 2.5089874-1.0016022 1.1043701 0 2.0290756.420578 2.7741089 1.261734l-.934433 1.0595169c-.475174-.5907516-1.0659256-.8862534-1.7722702-.8862534-.5651245 0-1.0483627.1848984-1.4494781.5539703-.4013519.3693085-.6021423.8667908-.6021423 1.4929123 0 .6261139.1893997 1.1285782.5684433 1.5073853C75.1412582 70.7863998 75.6002808 70.9757996 76.1397705 70.9757996zM84.9529266 65.5721283v1.3388748h-3.3518143v1.3870544h3.0147781v1.2809601h-3.0147781v1.3967819h3.4579086v1.3291397h-4.9605484v-6.732811H84.9529266z"></path><rect width="94.173" height="1.842" x="20.414" y="122.583" opacity=".08"></rect><rect width="128" height="3.16" x="3.5" y="128.34" fill="#7a8490"></rect><rect width="82.47" height="2.993" x="26.265" y="76.894" opacity=".08"></rect><g><rect width="2.737" height="15.675" x="11.993" y="112.665" fill="#9b3f27"></rect><path fill="#8eae1f" d="M21.3216496,111.3570938c0,4.3963928-3.5630989,7.9600601-7.9600554,7.9600601
					c-4.3963909,0-7.9600549-3.5636673-7.9600549-7.9600601c0-4.3963852,3.563664-31.097229,7.9600549-31.097229
					C17.7585506,80.2598648,21.3216496,106.9607086,21.3216496,111.3570938z"></path><path fill="#86a018" d="M17.7288494 110.6461105c0 .4610519-.3690128.8185272-.8185272.8185272-.4497967 0-.8072701-.3574753-.8072701-.8185272 0-.4497986.3574734-.8067093.8072701-.8067093C17.3598366 109.8394012 17.7288494 110.196312 17.7288494 110.6461105zM14.7300215 115.8638077c0 .4610519-.3690128.8185272-.8185282.8185272-.4497967 0-.8072691-.3574753-.8072691-.8185272 0-.4497986.3574724-.8067093.8072691-.8067093C14.3610086 115.0570984 14.7300215 115.4140091 14.7300215 115.8638077zM9.3205271 115.0536804c0 .2666321-.2134037.4733658-.473362.4733658-.2601213 0-.4668512-.2067337-.4668512-.4733658 0-.2601166.2067299-.4665222.4668512-.4665222C9.1071234 114.5871582 9.3205271 114.7935638 9.3205271 115.0536804zM10.9463253 111.458725c0 .4610596-.3690138.8185272-.8185291.8185272-.4497957 0-.8072691-.3574677-.8072691-.8185272 0-.4497986.3574734-.8067093.8072691-.8067093C10.5773115 110.6520157 10.9463253 111.0089264 10.9463253 111.458725zM10.9125576 94.3723831c0 .4610519-.3690128.8185272-.8185282.8185272-.4497967 0-.8072691-.3574753-.8072691-.8185272 0-.4497986.3574724-.8067093.8072691-.8067093C10.5435448 93.5656738 10.9125576 93.9225845 10.9125576 94.3723831zM14.3021736 102.3939896c0 .243576-.1949492.4324265-.4324274.4324265-.2376261 0-.4264784-.1888504-.4264784-.4324265 0-.2376251.1888523-.4261856.4264784-.4261856C14.1072245 101.967804 14.3021736 102.1563644 14.3021736 102.3939896zM16.3789291 90.6592178c0 .243576-.1949501.4324341-.4324274.4324341-.237627 0-.4264793-.188858-.4264793-.4324341 0-.2376251.1888523-.426178.4264793-.426178C16.183979 90.2330399 16.3789291 90.4215927 16.3789291 90.6592178zM17.7748566 99.2667465c0 .2435684-.1949482.4324265-.4324265.4324265-.237627 0-.4264793-.188858-.4264793-.4324265 0-.2376328.1888523-.4261856.4264793-.4261856C17.5799084 98.8405609 17.7748566 99.0291138 17.7748566 99.2667465zM13.6985922 93.1832047c0 .243576-.1949492.4324341-.4324265.4324341-.237627 0-.4264793-.188858-.4264793-.4324341 0-.2376251.1888523-.426178.4264793-.426178C13.503643 92.7570267 13.6985922 92.9455795 13.6985922 93.1832047zM9.8366404 90.6592178c0 .243576-.1949492.4324341-.4324265.4324341-.237627 0-.4264793-.188858-.4264793-.4324341 0-.2376251.1888523-.426178.4264793-.426178C9.6416912 90.2330399 9.8366404 90.4215927 9.8366404 90.6592178zM11.4377728 85.026535c0 .243576-.1949492.4324265-.4324265.4324265-.237627 0-.4264793-.1888504-.4264793-.4324265 0-.2376251.1888523-.426178.4264793-.426178C11.2428236 84.6003571 11.4377728 84.7889099 11.4377728 85.026535zM13.2691393 86.9393082c0 .2435684-.1949492.4324265-.4324265.4324265-.237627 0-.4264793-.188858-.4264793-.4324265 0-.2376328.1888523-.4261856.4264793-.4261856C13.0741901 86.5131226 13.2691393 86.7016754 13.2691393 86.9393082zM15.1846972 84.597229c0 .243576-.1949492.4324265-.4324265.4324265-.237627 0-.4264793-.1888504-.4264793-.4324265 0-.2376251.1888523-.426178.4264793-.426178C14.989748 84.171051 15.1846972 84.3596039 15.1846972 84.597229zM15.61415 97.0282745c0 .2435684-.1949492.4324265-.4324265.4324265-.237627 0-.4264793-.188858-.4264793-.4324265 0-.2376328.1888523-.4261856.4264793-.4261856C15.4192009 96.6020889 15.61415 96.7906418 15.61415 97.0282745zM13.4470167 106.3488235c0 .4610596-.3690138.8185349-.8185282.8185349-.4497967 0-.8072701-.3574753-.8072701-.8185349 0-.449791.3574734-.8067017.8072701-.8067017C13.0780029 105.5421219 13.4470167 105.8990326 13.4470167 106.3488235zM9.1932125 103.2038193c0 .4610519-.3690128.8185272-.8185282.8185272-.4497962 0-.8072691-.3574753-.8072691-.8185272 0-.4497986.3574729-.8067093.8072691-.8067093C8.8241997 102.39711 9.1932125 102.7540207 9.1932125 103.2038193zM18.8937016 103.2063065c0 .2666321-.2134037.4733658-.473362.4733658-.2601204 0-.4668503-.2067337-.4668503-.4733658 0-.2601166.2067299-.4665222.4668503-.4665222C18.6802979 102.7397842 18.8937016 102.9461899 18.8937016 103.2063065zM16.5731602 106.3513184c0 .2666321-.2134037.4733658-.4733639.4733658-.2601204 0-.4668503-.2067337-.4668503-.4733658 0-.2601166.2067299-.4665222.4668503-.4665222C16.3597565 105.8847961 16.5731602 106.0912018 16.5731602 106.3513184zM8.9777346 99.266449c0 .2666321-.2134037.4733582-.473362.4733582-.2601213 0-.4668512-.2067261-.4668512-.4733582 0-.2601242.2067299-.4665298.4668512-.4665298C8.7643309 98.7999191 8.9777346 99.0063248 8.9777346 99.266449zM13.8317003 110.6485977c0 .2666321-.2134037.4733658-.473362.4733658-.2601213 0-.4668512-.2067337-.4668512-.4733658 0-.2601166.2067299-.4665222.4668512-.4665222C13.6182966 110.1820755 13.8317003 110.3884811 13.8317003 110.6485977zM8.0375214 108.109726c0 .2666321-.2134032.4733658-.4733615.4733658-.2601213 0-.4668512-.2067337-.4668512-.4733658 0-.2601166.2067299-.4665222.4668512-.4665222C7.8241181 107.6432037 8.0375214 107.8496094 8.0375214 108.109726zM18.1583023 94.7385025c0 .4610519-.3690128.8185272-.8185272.8185272-.4497967 0-.8072701-.3574753-.8072701-.8185272 0-.4497986.3574734-.8067093.8072701-.8067093C17.7892895 93.9317932 18.1583023 94.2887039 18.1583023 94.7385025zM14.0820379 82.1565933c0 .4610519-.3690128.8185272-.8185282.8185272-.4497967 0-.8072691-.3574753-.8072691-.8185272 0-.4497986.3574724-.8067093.8072691-.8067093C13.7130251 81.349884 14.0820379 81.7067947 14.0820379 82.1565933zM13.2691393 98.2674026c0 .4610596-.3690128.8185272-.8185282.8185272-.4497967 0-.8072691-.3574677-.8072691-.8185272 0-.449791.3574724-.8067017.8072691-.8067017C12.9001265 97.460701 13.2691393 97.8176117 13.2691393 98.2674026zM12.6341181 90.2271271c0 .4610596-.3690138.8185272-.8185291.8185272-.4497957 0-.8072691-.3574677-.8072691-.8185272 0-.449791.3574734-.8067017.8072691-.8067017C12.2651043 89.4204254 12.6341181 89.7773361 12.6341181 90.2271271zM16.607378 87.3658218c0 .4610519-.3690128.8185272-.8185282.8185272-.4497967 0-.8072691-.3574753-.8072691-.8185272 0-.4497986.3574724-.8067093.8072691-.8067093C16.2383652 86.5591125 16.607378 86.9160233 16.607378 87.3658218z"></path><rect width="2.737" height="15.675" x="120.27" y="112.665" fill="#9b3f27"></rect><path fill="#8eae1f" d="M129.598465,111.3570938c0,4.3963928-3.5631027,7.9600601-7.9600601,7.9600601
					c-4.3963928,0-7.9600525-3.5636673-7.9600525-7.9600601c0-4.3963852,3.5636597-31.097229,7.9600525-31.097229
					C126.0353622,80.2598648,129.598465,106.9607086,129.598465,111.3570938z"></path><path fill="#86a018" d="M126.005661 110.6461105c0 .4610519-.3690109.8185272-.8185272.8185272-.4497986 0-.8072662-.3574753-.8072662-.8185272 0-.4497986.3574677-.8067093.8072662-.8067093C125.6366501 109.8394012 126.005661 110.196312 126.005661 110.6461105zM123.0068359 115.8638077c0 .4610519-.3690186.8185272-.8185272.8185272-.4497986 0-.8072739-.3574753-.8072739-.8185272 0-.4497986.3574753-.8067093.8072739-.8067093C122.6378174 115.0570984 123.0068359 115.4140091 123.0068359 115.8638077zM117.5973358 115.0536804c0 .2666321-.2134018.4733658-.4733582.4733658-.2601242 0-.4668503-.2067337-.4668503-.4733658 0-.2601166.2067261-.4665222.4668503-.4665222C117.383934 114.5871582 117.5973358 114.7935638 117.5973358 115.0536804zM119.2231369 111.458725c0 .4610596-.3690109.8185272-.8185272.8185272-.4497986 0-.8072739-.3574677-.8072739-.8185272 0-.4497986.3574753-.8067093.8072739-.8067093C118.854126 110.6520157 119.2231369 111.0089264 119.2231369 111.458725zM119.1893692 94.3723831c0 .4610519-.3690109.8185272-.8185272.8185272-.4497986 0-.8072739-.3574753-.8072739-.8185272 0-.4497986.3574753-.8067093.8072739-.8067093C118.8203583 93.5656738 119.1893692 93.9225845 119.1893692 94.3723831zM122.5789871 102.3939896c0 .243576-.1949539.4324265-.4324265.4324265-.2376251 0-.4264832-.1888504-.4264832-.4324265 0-.2376251.188858-.4261856.4264832-.4261856C122.3840332 101.967804 122.5789871 102.1563644 122.5789871 102.3939896zM124.6557388 90.6592178c0 .243576-.1949463.4324341-.4324265.4324341-.2376251 0-.4264755-.188858-.4264755-.4324341 0-.2376251.1888504-.426178.4264755-.426178C124.4607925 90.2330399 124.6557388 90.4215927 124.6557388 90.6592178zM126.0516663 99.2667465c0 .2435684-.1949463.4324265-.4324265.4324265-.2376251 0-.4264755-.188858-.4264755-.4324265 0-.2376328.1888504-.4261856.4264755-.4261856C125.85672 98.8405609 126.0516663 99.0291138 126.0516663 99.2667465zM121.9754028 93.1832047c0 .243576-.1949463.4324341-.4324265.4324341-.2376251 0-.4264755-.188858-.4264755-.4324341 0-.2376251.1888504-.426178.4264755-.426178C121.7804565 92.7570267 121.9754028 92.9455795 121.9754028 93.1832047zM118.1134491 90.6592178c0 .243576-.1949463.4324341-.4324265.4324341-.2376251 0-.4264755-.188858-.4264755-.4324341 0-.2376251.1888504-.426178.4264755-.426178C117.9185028 90.2330399 118.1134491 90.4215927 118.1134491 90.6592178zM119.7145844 85.026535c0 .243576-.1949463.4324265-.4324265.4324265-.2376251 0-.4264755-.1888504-.4264755-.4324265 0-.2376251.1888504-.426178.4264755-.426178C119.5196381 84.6003571 119.7145844 84.7889099 119.7145844 85.026535zM121.5459518 86.9393082c0 .2435684-.1949463.4324265-.4324265.4324265-.2376251 0-.4264832-.188858-.4264832-.4324265 0-.2376328.188858-.4261856.4264832-.4261856C121.3510056 86.5131226 121.5459518 86.7016754 121.5459518 86.9393082zM123.4615097 84.597229c0 .243576-.1949463.4324265-.4324265.4324265-.2376251 0-.4264832-.1888504-.4264832-.4324265 0-.2376251.188858-.426178.4264832-.426178C123.2665634 84.171051 123.4615097 84.3596039 123.4615097 84.597229zM123.8909607 97.0282745c0 .2435684-.1949463.4324265-.4324265.4324265-.2376251 0-.4264755-.188858-.4264755-.4324265 0-.2376328.1888504-.4261856.4264755-.4261856C123.6960144 96.6020889 123.8909607 96.7906418 123.8909607 97.0282745zM121.7238312 106.3488235c0 .4610596-.3690186.8185349-.8185349.8185349-.449791 0-.8072662-.3574753-.8072662-.8185349 0-.449791.3574753-.8067017.8072662-.8067017C121.3548126 105.5421219 121.7238312 105.8990326 121.7238312 106.3488235zM117.4700241 103.2038193c0 .4610519-.3690109.8185272-.8185272.8185272-.4497986 0-.8072662-.3574753-.8072662-.8185272 0-.4497986.3574677-.8067093.8072662-.8067093C117.1010132 102.39711 117.4700241 102.7540207 117.4700241 103.2038193zM127.170517 103.2063065c0 .2666321-.2134094.4733658-.4733658.4733658-.2601242 0-.4668503-.2067337-.4668503-.4733658 0-.2601166.2067261-.4665222.4668503-.4665222C126.9571075 102.7397842 127.170517 102.9461899 127.170517 103.2063065zM124.849968 106.3513184c0 .2666321-.2134018.4733658-.4733582.4733658-.2601242 0-.4668503-.2067337-.4668503-.4733658 0-.2601166.2067261-.4665222.4668503-.4665222C124.6365662 105.8847961 124.849968 106.0912018 124.849968 106.3513184zM117.2545471 99.266449c0 .2666321-.2134018.4733582-.4733658.4733582-.2601166 0-.4668503-.2067261-.4668503-.4733582 0-.2601242.2067337-.4665298.4668503-.4665298C117.0411453 98.7999191 117.2545471 99.0063248 117.2545471 99.266449zM122.1085129 110.6485977c0 .2666321-.2134018.4733658-.4733658.4733658-.2601166 0-.4668503-.2067337-.4668503-.4733658 0-.2601166.2067337-.4665222.4668503-.4665222C121.8951111 110.1820755 122.1085129 110.3884811 122.1085129 110.6485977zM116.3143311 108.109726c0 .2666321-.2134018.4733658-.4733582.4733658-.2601242 0-.4668503-.2067337-.4668503-.4733658 0-.2601166.2067261-.4665222.4668503-.4665222C116.1009293 107.6432037 116.3143311 107.8496094 116.3143311 108.109726zM126.435112 94.7385025c0 .4610519-.3690109.8185272-.8185272.8185272-.449791 0-.8072662-.3574753-.8072662-.8185272 0-.4497986.3574753-.8067093.8072662-.8067093C126.0661011 93.9317932 126.435112 94.2887039 126.435112 94.7385025zM122.3588486 82.1565933c0 .4610519-.3690109.8185272-.8185272.8185272-.4497986 0-.8072662-.3574753-.8072662-.8185272 0-.4497986.3574677-.8067093.8072662-.8067093C121.9898376 81.349884 122.3588486 81.7067947 122.3588486 82.1565933zM121.5459518 98.2674026c0 .4610596-.3690109.8185272-.8185272.8185272-.4497986 0-.8072739-.3574677-.8072739-.8185272 0-.449791.3574753-.8067017.8072739-.8067017C121.1769409 97.460701 121.5459518 97.8176117 121.5459518 98.2674026zM120.9109268 90.2271271c0 .4610596-.3690109.8185272-.8185272.8185272-.4497986 0-.8072662-.3574677-.8072662-.8185272 0-.449791.3574677-.8067017.8072662-.8067017C120.5419159 89.4204254 120.9109268 89.7773361 120.9109268 90.2271271zM124.8841934 87.3658218c0 .4610519-.3690186.8185272-.8185349.8185272-.449791 0-.8072662-.3574753-.8072662-.8185272 0-.4497986.3574753-.8067093.8072662-.8067093C124.5151749 86.5591125 124.8841934 86.9160233 124.8841934 87.3658218z"></path></g></svg>